#!OML:ASF X:\für Bonn\!DataBase\2005_08_10_Bjorn_Final\c3d\bjorn.ASF
:FULLY-SPECIFIED
:DEGREES
32
root 4.83203 17.4605 -22.8276 14.7677 -9.60424 -0.345241
lowerback 4.45092 1.09085 -1.20839
upperback 6.16424 1.45071 -1.40309
thorax 3.87229 0.699615 -0.786274
lowerneck -12.254 0.361941 3.53965
upperneck -11.0913 -0.0572143 -1.97617
head -1.46108 -0.164651 -1.2138
rclavicle -1.90833e-014 2.10712e-014
rhumerus -25.8838 -11.6061 -74.4383
rradius 96.6506
rwrist -187.066
rhand -8.92146e-013 -3.27597e-013
rfingers 7.12502
rthumb 25.5904 -28.3008
lclavicle -1.90833e-014 2.10712e-014
lhumerus -23.9354 -16.6503 75.8764
lradius 96.8058
lwrist 8.30579
lhand -5.02528e-013 5.69319e-013
lfingers 7.12502
lthumb 25.5904 28.3008
rfemur -34.6545 -4.28355 15.1685
rtibia 67.5409
rfoot -25.7084 23.8653
rtoes -11.353
lfemur -35.2925 4.99659 -19.6258
ltibia 69.9802
lfoot -25.2546 3.29597
ltoes -36.9623
33
root 4.82878 17.691 -22.5813 14.6144 -9.7193 -0.47864
lowerback 3.34888 1.14705 -1.0856
upperback 5.68486 1.54447 -1.34115
thorax 3.99124 0.750829 -0.773011
lowerneck -11.1629 0.203006 3.59972
upperneck -9.65187 -0.218522 -1.93204
head -1.17569 -0.231049 -1.2087
rclavicle -6.55989e-015 5.96354e-015
rhumerus -25.2673 -10.8197 -72.8332
rradius 99.888
rwrist -188.127
rhand -7.45045e-013 -3.26802e-013
rfingers 7.12502
rthumb 25.5904 -28.3008
lclavicle -6.55989e-015 5.96354e-015
lhumerus -22.9868 -17.3672 74.2757
lradius 99.816
lwrist 8.2253
lhand -4.99347e-013 4.70722e-013
lfingers 7.12502
lthumb 25.5904 28.3008
rfemur -32.1849 -4.91917 15.0439
rtibia 64.4193
rfoot -23.0776 24.9104
rtoes -8.97715
lfemur -32.8409 5.33118 -19.432
ltibia 66.9452
lfoot -23.9946 1.97271
ltoes -35.4167
34
root 4.82406 17.9207 -22.3276 14.3103 -9.75429 -0.644845
lowerback 2.25225 1.17123 -0.900579
upperback 5.34812 1.59347 -1.2556
thorax 4.2602 0.7808 -0.76762
lowerneck -9.99858 0.0478942 3.61653
upperneck -8.50659 -0.369976 -1.86886
head -1.00206 -0.292859 -1.19127
rclavicle -2.20651e-014 -7.95139e-016
rhumerus -24.3849 -10.2861 -71.1594
rradius 103.162
rwrist -189.338
rhand 4.38917e-013 2.82672e-013
rfingers 7.12502
rthumb 25.5904 -28.3008
lclavicle -2.20651e-014 -7.95139e-016
lhumerus -21.7235 -17.8733 72.5758
lradius 102.391
lwrist 8.25084
lhand 4.23809e-013 -3.57812e-013
lfingers 7.12502
lthumb 25.5904 28.3008
rfemur -29.5053 -5.6275 14.9243
rtibia 61.199
rfoot -20.2326 25.8597
rtoes -7.93693
lfemur -30.208 5.71826 -19.1385
ltibia 63.872
lfoot -22.4757 0.621034
ltoes -34.3373
35
root 4.81897 18.1477 -22.0767 13.8562 -9.72948 -0.762943
lowerback 1.31391 1.16294 -0.737272
upperback 5.05029 1.59266 -1.17822
thorax 4.48183 0.78527 -0.761853
lowerneck -8.85328 -0.0976013 3.64635
upperneck -7.31346 -0.513676 -1.87973
head -0.814979 -0.35067 -1.19957
rclavicle 2.98177e-014 -1.90833e-014
rhumerus -23.3573 -9.89046 -69.5955
rradius 106.17
rwrist -190.622
rhand 6.36906e-013 -4.44483e-013
rfingers 7.12502
rthumb 25.5904 -28.3008
lclavicle 2.98177e-014 -1.90833e-014
lhumerus -20.3589 -18.2579 70.7893
lradius 104.477
lwrist 7.69761
lhand -3.50656e-013 -6.13847e-013
lfingers 7.12502
lthumb 25.5904 28.3008
rfemur -26.7154 -6.3567 14.7209
rtibia 57.9583
rfoot -16.8634 26.6496
rtoes -6.86793
lfemur -27.4941 6.155 -18.8222
ltibia 60.8236
lfoot -20.578 -0.784522
ltoes -33.8089
36
root 4.81341 18.3762 -21.8217 13.3333 -9.7324 -0.886457
lowerback 0.426501 1.16993 -0.577752
upperback 4.7394 1.60718 -1.09011
thorax 4.66208 0.796929 -0.743691
lowerneck -7.92431 -0.236967 3.71033
upperneck -5.63383 -0.658314 -1.99078
head -0.445581 -0.407106 -1.24691
rclavicle 2.18663e-015 5.56597e-015
rhumerus -22.3204 -9.4451 -68.1841
rradius 108.685
rwrist -191.794
rhand -9.38264e-013 4.69132e-014
rfingers 7.12502
rthumb 25.5904 -28.3008
lclavicle 2.18663e-015 5.56597e-015
lhumerus -19.006 -18.5607 68.9864
lradius 106.26
lwrist 6.84688
lhand -6.50225e-013 8.15017e-013
lfingers 7.12502
lthumb 25.5904 28.3008
rfemur -23.892 -6.99039 14.4708
rtibia 54.7296
rfoot -12.7184 27.1669
rtoes -5.11125
lfemur -24.7738 6.71098 -18.4548
ltibia 57.8277
lfoot -18.142 -2.14865
ltoes -33.2907
37
root 4.80724 18.6115 -21.5595 12.9895 -9.76287 -1.01276
lowerback -0.719604 1.18498 -0.377444
upperback 4.42381 1.63231 -1.03886
thorax 4.98852 0.815967 -0.780176
lowerneck -7.31046 -0.353283 3.7469
upperneck -3.53637 -0.775426 -2.0491
head 0.102733 -0.448078 -1.27834
rclavicle 1.2921e-015 1.98785e-014
rhumerus -21.1743 -8.94841 -66.8727
rradius 110.842
rwrist -192.941
rhand -5.94764e-013 5.91583e-013
rfingers 7.12502
rthumb 25.5904 -28.3008
lclavicle 1.2921e-015 1.98785e-014
lhumerus -17.4445 -18.7562 67.1555
lradius 107.854
lwrist 6.34314
lhand 6.54797e-013 5.87011e-013
lfingers 7.12502
lthumb 25.5904 28.3008
rfemur -21.344 -7.41531 14.2022
rtibia 51.5664
rfoot -7.37799 27.1406
rtoes -0.992854
lfemur -22.3705 7.34685 -18.0787
ltibia 54.9235
lfoot -15.0918 -3.31228
ltoes -33.0459
38
root 4.80044 18.859 -21.2894 12.6302 -9.76302 -1.08692
lowerback -1.97258 1.20725 -0.183333
upperback 4.24079 1.66641 -1.03505
thorax 5.51864 0.840234 -0.85757
lowerneck -7.02933 -0.443621 3.74629
upperneck -1.34049 -0.867793 -1.95649
head 0.740486 -0.475678 -1.26388
rclavicle -1.66979e-014 6.36111e-015
rhumerus -19.7431 -8.67307 -65.6859
rradius 112.91
rwrist -194.031
rhand -2.06736e-014 3.97569e-014
rfingers 7.12502
rthumb 25.5904 -28.3008
lclavicle -1.66979e-014 6.36111e-015
lhumerus -15.585 -18.9467 65.2194
lradius 109.163
lwrist 6.51965
lhand 2.15483e-013 -5.21611e-013
lfingers 7.12502
lthumb 25.5904 28.3008
rfemur -18.9301 -7.64356 13.8557
rtibia 48.5629
rfoot -1.53244 26.1725
rtoes 4.18705
lfemur -20.0665 7.94342 -17.7155
ltibia 52.1079
lfoot -11.5221 -4.30282
ltoes -33.2219
39
root 4.79234 19.1247 -21.0146 12.3159 -9.75877 -1.20515
lowerback -3.23268 1.22158 0.0187968
upperback 4.0295 1.6815 -0.992719
thorax 6.02419 0.854824 -0.900577
lowerneck -6.44816 -0.505441 3.53758
upperneck 0.517691 -0.907589 -1.62319
head 1.22834 -0.473186 -1.1338
rclavicle 3.39922e-014 -8.34896e-015
rhumerus -18.2872 -8.36848 -64.6098
rradius 114.858
rwrist -195.167
rhand -9.85972e-014 1.00506e-012
rfingers 7.12502
rthumb 25.5904 -28.3008
lclavicle 3.39922e-014 -8.34896e-015
lhumerus -13.8291 -19.1011 63.3227
lradius 110.163
lwrist 7.01386
lhand 8.67496e-013 -6.04305e-014
lfingers 7.12502
lthumb 25.5904 28.3008
rfemur -16.8013 -7.75065 13.584
rtibia 45.8141
rfoot 3.77996 24.2813
rtoes 7.37144
lfemur -17.9412 8.50199 -17.2606
ltibia 49.4024
lfoot -7.50387 -5.28059
ltoes -33.0739
40
root 4.78517 19.3931 -20.7469 12.0614 -9.76802 -1.27752
lowerback -4.42786 1.23728 0.171484
upperback 3.75521 1.69605 -0.969297
thorax 6.42648 0.867458 -0.937486
lowerneck -5.44974 -0.54855 3.1598
upperneck 1.94324 -0.917301 -1.01964
head 1.50929 -0.453545 -0.881206
rclavicle 9.24349e-015 -9.14409e-015
rhumerus -16.8655 -8.00583 -63.6142
rradius 116.455
rwrist -196.636
rhand -5.53417e-013 9.28722e-013
rfingers 7.12502
rthumb 25.5904 -28.3008
lclavicle 9.24349e-015 -9.14409e-015
lhumerus -12.1559 -19.134 61.5731
lradius 111.007
lwrist 7.20248
lhand 3.67354e-013 6.67121e-013
lfingers 7.12502
lthumb 25.5904 28.3008
rfemur -15.0494 -7.73731 13.3064
rtibia 43.4642
rfoot 8.21707 21.8647
rtoes 7.74779
lfemur -16.0668 8.84181 -16.8539
ltibia 46.8514
lfoot -3.16998 -5.98484
ltoes -32.3557
41
root 4.77788 19.6691 -20.4894 11.8683 -9.76354 -1.37823
lowerback -5.43194 1.23882 0.302606
upperback 3.39039 1.68564 -0.910675
thorax 6.62066 0.865547 -0.933259
lowerneck -4.26669 -0.566948 2.73292
upperneck 3.17738 -0.902332 -0.414599
head 1.69822 -0.425209 -0.616947
rclavicle -1.54058e-014 3.18055e-015
rhumerus -15.5332 -7.45266 -62.6279
rradius 117.56
rwrist -198.663
rhand -4.38917e-013 2.16278e-013
rfingers 7.12502
rthumb 25.5904 -28.3008
lclavicle -1.54058e-014 3.18055e-015
lhumerus -10.6509 -18.9719 60.1746
lradius 111.815
lwrist 7.21113
lhand 1.11319e-013 2.00375e-013
lfingers 7.12502
lthumb 25.5904 28.3008
rfemur -13.6991 -7.62484 13.1531
rtibia 41.5508
rfoot 11.7273 19.2736
rtoes 5.16282
lfemur -14.4576 9.00332 -16.4309
ltibia 44.51
lfoot 1.36887 -6.28527
ltoes -31.4465
42
root 4.77095 19.9464 -20.2419 11.7631 -9.79129 -1.42651
lowerback -6.36977 1.24425 0.341502
upperback 3.02747 1.686 -0.859571
thorax 6.77582 0.864773 -0.885535
lowerneck -3.16411 -0.567642 2.29291
upperneck 4.2476 -0.882182 0.198498
head 1.85022 -0.398313 -0.34809
rclavicle 1.2424e-014 8.34896e-015
rhumerus -14.1538 -6.98094 -61.7628
rradius 118.447
rwrist -200.543
rhand -1.20861e-013 1.7175e-013
rfingers 7.12502
rthumb 25.5904 -28.3008
lclavicle 1.2424e-014 8.34896e-015
lhumerus -9.15878 -18.6485 59.0601
lradius 112.6
lwrist 7.1277
lhand 1.07503e-012 -9.89153e-013
lfingers 7.12502
lthumb 25.5904 28.3008
rfemur -12.7879 -7.39698 13.0504
rtibia 40.1003
rfoot 14.2189 16.982
rtoes -1.54327
lfemur -13.178 8.89198 -16.1274
ltibia 42.4739
lfoot 5.97181 -5.93982
ltoes -30.0419
43
root 4.76574 20.2217 -20.0009 11.7682 -9.81685 -1.46458
lowerback -7.31148 1.25775 0.395415
upperback 2.67083 1.69675 -0.845517
thorax 6.94103 0.870548 -0.88354
lowerneck -2.19852 -0.557571 1.92914
upperneck 5.20763 -0.866815 0.7699
head 1.99253 -0.376522 -0.105652
rclavicle -3.07122e-014 3.18055e-015
rhumerus -12.7945 -6.59109 -61.0846
rradius 119.244
rwrist -201.651
rhand 6.58375e-013 -1.51712e-012
rfingers 7.12502
rthumb 25.5904 -28.3008
lclavicle -3.07122e-014 3.18055e-015
lhumerus -7.63027 -18.3317 58.0522
lradius 113.203
lwrist 7.24163
lhand -1.02414e-012 -6.72687e-013
lfingers 7.12502
lthumb 25.5904 28.3008
rfemur -12.1647 -6.98979 13.0345
rtibia 39.0234
rfoot 16.2939 14.1047
rtoes -6.76765
lfemur -12.2471 8.27512 -15.9477
ltibia 40.8186
lfoot 10.1293 -5.1151
ltoes -29.1556
